
<svg xmlns="http://www.w3.org/2000/svg" xmlns:xlink="http://www.w3.org/1999/xlink" xmlns:ev="http://www.w3.org/2001/xml-events"
		width="22.3858in" height="8.26772in" viewBox="0 0 1611.78 595.276" xml:space="preserve" color-interpolation-filters="sRGB"
		class="st27">
	<style type="text/css">
	<![CDATA[
		.st1 {fill:#ffffff;fill-opacity:0;stroke:#002060;stroke-dasharray:7,5;stroke-linecap:round;stroke-linejoin:round;stroke-width:1}
		.st2 {fill:#ffffff;fill-opacity:0;stroke:#000000;stroke-linecap:round;stroke-linejoin:round;stroke-width:0.72}
		.st3 {fill:#ffffff;stroke:#000000;stroke-linecap:round;stroke-linejoin:round;stroke-width:0.72}
		.st4 {fill:#000000;font-family:Arial;font-size:1.00001em}
		.st5 {fill:#ffffff;fill-opacity:0}
		.st6 {stroke:#000000;stroke-linecap:round;stroke-linejoin:round;stroke-width:0.72;visibility:hidden}
		.st7 {fill:#000000;font-family:Arial;font-size:0.833336em}
		.st8 {fill:#ffffff;stroke:#000000;stroke-linecap:round;stroke-linejoin:round;stroke-width:0.72;visibility:hidden}
		.st9 {fill:#ffffff;stroke:#000000;stroke-linecap:round;stroke-linejoin:round;stroke-width:0.24}
		.st10 {fill:#ffff00;stroke:#000000;stroke-linecap:round;stroke-linejoin:round;stroke-width:0.24;visibility:hidden}
		.st11 {fill:#000000;stroke:none;stroke-linecap:round;stroke-linejoin:round;stroke-width:0.24;visibility:hidden}
		.st12 {fill:#ffffff;stroke:#000000;stroke-linecap:round;stroke-linejoin:round;stroke-width:0.24;visibility:hidden}
		.st13 {fill:#000000;font-family:Calibri Light;font-size:0.666664em}
		.st14 {fill:#000000;font-family:Calibri;font-size:0.666664em}
		.st15 {font-size:1em}
		.st16 {marker-end:url(#mrkr4-92);stroke:#000000;stroke-linecap:round;stroke-linejoin:round;stroke-width:0.72}
		.st17 {fill:#000000;fill-opacity:1;stroke:#000000;stroke-opacity:1;stroke-width:0.28571428571429}
		.st18 {fill:#ffffff;stroke:none;stroke-linecap:butt;stroke-width:7.2}
		.st19 {fill:#ab9ac0;stroke:#000000;stroke-linecap:round;stroke-linejoin:round;stroke-width:0.24}
		.st20 {fill:#ffffff;stroke:#000000;stroke-linecap:round;stroke-linejoin:round;stroke-width:0.75}
		.st21 {fill:#000000;stroke:#000000;stroke-linecap:round;stroke-linejoin:round;stroke-width:0.24}
		.st22 {marker-end:url(#mrkr16-216);marker-start:url(#mrkr20-214);stroke:#000000;stroke-dasharray:5.04,3.6;stroke-linecap:round;stroke-linejoin:round;stroke-width:0.72}
		.st23 {fill:none;stroke:none;stroke-linecap:round;stroke-linejoin:round;stroke-width:0.72}
		.st24 {fill:#000000;font-family:Calibri;font-size:0.666664em;font-weight:bold}
		.st25 {fill:#000000;font-family:Arial;font-size:0.916672em;font-weight:bold}
		.st26 {fill:#ffffff;stroke:#1f477d;stroke-dasharray:7,5;stroke-linecap:round;stroke-linejoin:round;stroke-width:1}
		.st27 {fill:none;fill-rule:evenodd;font-size:12px;overflow:visible;stroke-linecap:square;stroke-miterlimit:3}
	]]>
	</style>

	<defs id="Markers">
		<g id="lend4">
			<path d="M 2 1 L 0 0 L 2 -1 L 2 1 " style="stroke:none"/>
		</g>
		<marker id="mrkr4-92" class="st17" refX="-7" orient="auto" markerUnits="strokeWidth" overflow="visible">
			<use xlink:href="#lend4" transform="scale(-3.5,-3.5) "/>
		</marker>
		<g id="lend20">
			<path
					d="M 0 0.75 C -0.414214 0.75 -0.75 0.414214 -0.75 0 -0.75 -0.414214 -0.414214 -0.75 0 -0.75 0.414214 -0.75 0.75 -0.414214 0.75 0 0.75 0.414214 0.414214 0.75 0 0.75 Z "
					style="stroke-linecap:round;stroke-linejoin:round;fill:none"/>
		</g>
		<marker id="mrkr20-214" class="st17" refX="2.125" orient="auto" markerUnits="strokeWidth" overflow="visible">
			<use xlink:href="#lend20" transform="scale(3.5) "/>
		</marker>
		<g id="lend16">
			<path d="M 0 0 L 2 -1 L 2 1 L 0 0 " style="stroke-linecap:round;stroke-linejoin:round;fill:none"/>
		</g>
		<marker id="mrkr16-216" class="st17" refX="-7" orient="auto" markerUnits="strokeWidth" overflow="visible">
			<use xlink:href="#lend16" transform="scale(-3.5,-3.5) "/>
		</marker>
	</defs>
	<g>
		<title>PF2 - spec</title>
		<g id="shape1150-1" transform="translate(441,-211.218)">
			<title>Rectangle.1150</title>
			<desc>​</desc>
			<path d="M0 595.28 L162 595.28 L162 503.3 L0 503.3 L0 595.28 Z" class="st1"/>
		</g>
		<g id="group212-3" transform="translate(36.2556,-68.8009)">
			<title>CFF Container</title>
			<g id="shape213-4">
				<title>Sheet.213</title>
				<rect x="0" y="123.329" width="854.744" height="471.947" class="st2"/>
			</g>
			<g id="shape214-6" transform="translate(-559.276,595.276) rotate(-90)">
				<title>Sheet.214</title>
				<desc>Complete online consultation Triage &#38; send payload</desc>
				<path d="M0 595.28 L471.95 595.28 L471.95 559.28 L0 559.28 L0 595.28 Z" class="st3"/>
				<text x="97.22" y="580.88" class="st4">Complete online consultation Triage &#38; send payload</text>			</g>
		</g>
		<g id="shape215-9" transform="translate(72.2556,-68.8009)">
			<title>Swimlane List</title>
			<rect x="0" y="123.329" width="818.744" height="471.947" class="st5"/>
			<rect x="0" y="123.329" width="818.744" height="471.947" class="st6"/>
		</g>
		<g id="group208-12" transform="translate(72.2556,-448.775)">
			<title>Pool / Lane</title>
			<g id="shape209-13">
				<title>Sheet.209</title>
				<rect x="0" y="503.303" width="818.744" height="91.9728" class="st2"/>
			</g>
			<g id="shape210-15" transform="translate(422.872,0)">
				<title>Sheet.210</title>
			</g>
			<g id="shape211-17" transform="translate(-559.276,595.276) rotate(-90)">
				<title>Sheet.211</title>
				<desc>OC Frontend</desc>
				<path d="M0 595.28 L91.97 595.28 L91.97 559.28 L0 559.28 L0 595.28 Z" class="st3"/>
				<text x="17.09" y="580.28" class="st7">OC Frontend</text>			</g>
		</g>
		<g id="group240-20" transform="translate(72.2556,-198.033)">
			<title>Pool / Lane.240</title>
			<g id="shape241-21">
				<title>Sheet.241</title>
				<rect x="0" y="344.534" width="818.744" height="250.742" class="st2"/>
			</g>
			<g id="shape242-23" transform="translate(422.872,0)">
				<title>Sheet.242</title>
			</g>
			<g id="shape243-25" transform="translate(-559.276,595.276) rotate(-90)">
				<title>Sheet.243</title>
				<desc>OC Backend</desc>
				<path d="M0 595.28 L250.74 595.28 L250.74 559.28 L0 559.28 L0 595.28 Z" class="st3"/>
				<text x="97.02" y="580.28" class="st7">OC Backend</text>			</g>
		</g>
		<g id="group257-28" transform="translate(72.2556,-68.8009)">
			<title>Swimlane.257</title>
			<g id="shape258-29">
				<title>Sheet.258</title>
				<rect x="0" y="466.043" width="818.744" height="129.232" class="st2"/>
			</g>
			<g id="shape259-31" transform="translate(-559.276,595.276) rotate(-90)">
				<title>Sheet.259</title>
				<desc>GP system</desc>
				<path d="M0 595.28 L129.23 595.28 L129.23 559.28 L0 559.28 L0 595.28 Z" class="st3"/>
				<text x="40.17" y="580.28" class="st7">GP system</text>			</g>
		</g>
		<g id="shape216-34" transform="translate(108.256,-68.8009)">
			<title>Phase List</title>
			<rect x="0" y="123.329" width="782.744" height="471.947" class="st8"/>
		</g>
		<g id="group217-36" transform="translate(108.256,-68.8009)">
			<title>Separator</title>
			<g id="shape218-37">
				<title>Sheet.218</title>
			</g>
			<g id="shape219-39" transform="translate(-36,-471.947)">
				<title>Sheet.219</title>
				<desc>Phase</desc>
				<path d="M0 595.28 L818.74 595.28 L0 595.28 Z" class="st9"/>
			</g>
		</g>
		<g id="group220-41" transform="translate(126.27,-485.012)">
			<title>Start Event</title>
			<desc>Start</desc>
			<g id="shape221-42">
				<title>Sheet.221</title>
				<ellipse cx="11.25" cy="584.026" rx="11.25" ry="11.25" class="st9"/>
			</g>
			<g id="shape222-44">
				<title>Sheet.222</title>
				<ellipse cx="11.25" cy="584.026" rx="9" ry="9" class="st10"/>
			</g>
			<g id="shape223-46" transform="translate(4.77,-4.77)">
				<title>Sheet.223</title>
				<ellipse cx="6.48" cy="588.796" rx="6.48" ry="6.48" class="st11"/>
			</g>
			<g id="shape224-48" transform="translate(2.25,-2.25)">
				<title>Sheet.224</title>
				<ellipse cx="9" cy="586.276" rx="9" ry="9" class="st12"/>
			</g>
			<g id="shape225-50" transform="translate(5.0625,-6.75)">
				<title>Sheet.225</title>
			</g>
			<g id="shape226-52" transform="translate(18.3707,-6.78919) scale(-1,1)">
				<title>Sheet.226</title>
			</g>
			<g id="shape227-54" transform="translate(5.14219,-5.14219)">
				<title>Sheet.227</title>
			</g>
			<g id="shape228-56" transform="translate(4.77,-7.72558)">
				<title>Sheet.228</title>
			</g>
			<g id="shape229-58" transform="translate(4.77,-5.6694)">
				<title>Sheet.229</title>
			</g>
			<g id="shape230-60" transform="translate(5.0625,-6.75)">
				<title>Sheet.230</title>
			</g>
			<g id="shape231-62" transform="translate(6.16741,-5.34375)">
				<title>Sheet.231</title>
			</g>
			<g id="shape232-64" transform="translate(4.5,-4.5)">
				<title>Sheet.232</title>
			</g>
			<g id="shape220-66">
				<text x="3.55" y="604.48" class="st13">Start</text>			</g>
		</g>
		<g id="shape1289-69" transform="translate(164.279,-476.048)">
			<title>Rounded Rectangle.1289</title>
			<desc>Patient accesses OC, (Patient or GP initiated) ​</desc>
			<path d="M7.9 595.28 L71.07 595.28 A7.89613 7.89613 -180 0 0 78.96 587.38 L78.96 562.74 A7.89613 7.89613 -180 0 0 71.07
						 554.85 L7.9 554.85 A7.89613 7.89613 -180 0 0 0 562.74 L0 587.38 A7.89613 7.89613 -180 0 0 7.9 595.28 Z"
					class="st9"/>
			<text x="6.25" y="567.86" class="st14">Patient accesses OC, <tspan x="16.69" dy="1.2em" class="st15">(Patient or GP </tspan><tspan
						x="23.82" dy="1.2em" class="st15">initiated)</tspan></text>		</g>
		<g id="shape1291-74" transform="translate(377.309,-476.275)">
			<title>Rounded Rectangle.1291</title>
			<desc>Patient completes OC</desc>
			<path d="M7.79 595.28 L70.1 595.28 A7.78886 7.78886 -180 0 0 77.89 587.49 L77.89 563.09 A7.78886 7.78886 -180 0 0 70.1
						 555.3 L7.79 555.3 A7.78886 7.78886 -180 0 0 0 563.09 L0 587.49 A7.78886 7.78886 -180 0 0 7.79 595.28 Z"
					class="st9"/>
			<text x="9.47" y="572.89" class="st14">Patient completes <tspan x="34.16" dy="1.2em" class="st15">OC</tspan></text>		</g>
		<g id="shape1290-78" transform="translate(272.077,-476.275)">
			<title>Rounded Rectangle.1290</title>
			<desc>Patient enters demographic details </desc>
			<path d="M7.79 595.28 L70.11 595.28 A7.78958 7.78958 -180 0 0 77.9 587.49 L77.9 563.09 A7.78958 7.78958 -180 0 0 70.11
						 555.3 L7.79 555.3 A7.78958 7.78958 -180 0 0 0 563.09 L0 587.49 A7.78958 7.78958 -180 0 0 7.79 595.28 Z"
					class="st9"/>
			<text x="15.99" y="572.89" class="st14">Patient enters <tspan x="4.99" dy="1.2em" class="st15">demographic details</tspan></text>		</g>
		<g id="shape1293-82" transform="translate(164.199,-354.356)">
			<title>Rounded Rectangle.1293</title>
			<desc>OC system presents online form for completion​</desc>
			<path d="M7.89 595.28 L71 595.28 A7.88893 7.88893 -180 0 0 78.89 587.39 L78.89 563.19 A7.88893 7.88893 -180 0 0 71 555.3
						 L7.89 555.3 A7.88893 7.88893 -180 0 0 -0 563.19 L0 587.39 A7.88893 7.88893 -180 0 0 7.89 595.28 Z"
					class="st9"/>
			<text x="7.34" y="568.09" class="st14">OC system presents <tspan x="14.85" dy="1.2em" class="st15">online form for </tspan><tspan
						x="20.97" dy="1.2em" class="st15">completion</tspan></text>		</g>
		<g id="shape595-87" transform="translate(147.524,-487.262)">
			<title>Sequence Flow.595</title>
			<path d="M1.25 586.28 L11.71 586.28" class="st16"/>
		</g>
		<g id="shape596-93" transform="translate(243.09,-374.344)">
			<title>Sequence Flow.596</title>
			<path d="M0 595.28 L9 595.28 A4.5 4.5 -180 0 0 13.5 590.78 L13.5 477.86 A4.5 4.5 0 0 1 18 473.36 L23.95 473.36"
					class="st16"/>
		</g>
		<g id="shape598-98" transform="translate(212.702,-476.048)">
			<title>Sequence Flow.598</title>
			<path d="M-8.94 595.28 L-8.94 608.72 a0.0576 0.0576 0 0 1 -0.0576 0.0576 L-9 608.78 a0.0576 0.0576 -180 0 0 -0.0576 0.0576
						 L-9.06 671.95" class="st16"/>
		</g>
		<g id="shape599-103" transform="translate(349.953,-376.489)">
			<title>Sequence Flow.599</title>
			<desc>Yes</desc>
			<path d="M0 595.28 L9 595.28 A4.5 4.5 -180 0 0 13.5 590.78 L13.5 480 A4.5 4.5 0 0 1 18 475.5 L22.32 475.5" class="st16"/>
			<rect x="7.99619" y="530.411" width="11.0078" height="9.59985" class="st18"/>
			<text x="8" y="537.61" class="st14">Yes</text>		</g>
		<g id="shape603-110" transform="translate(748.623,-479.232)">
			<title>Sequence Flow.603</title>
			<path d="M-8.79 595.28 L-8.79 608.56 a0.213 0.213 0 0 1 -0.213 0.213 L-9 608.78 a0.213 0.213 -180 0 0 -0.213 0.213 L-9.21
						 691.47" class="st16"/>
		</g>
		<g id="shape1319-115" transform="translate(697.254,-319.651)">
			<title>Diamond.1319</title>
			<desc> Auto triage decision (GP/CP)</desc>
			<path d="M42.16 595.28 L84.31 566.1 L42.16 536.93 L0 566.1 L42.16 595.28 Z" class="st19"/>
			<text x="24.85" y="558.9" class="st14">Auto triage <tspan x="28.76" dy="1.2em" class="st15">decision </tspan><tspan
						x="29.4" dy="1.2em" class="st15">(GP/CP)</tspan></text>		</g>
		<g id="shape821-120" transform="translate(561.208,-496.262)">
			<title>Sequence Flow.821</title>
			<desc>Yes</desc>
			<path d="M0 595.28 L9 595.28 A4.5 4.5 0 0 1 13.5 599.78 L13.5 672.34 A4.5 4.5 -180 0 0 18 676.84 L25.52 676.84"
					class="st16"/>
			<rect x="7.99619" y="633.04" width="11.0078" height="9.59985" class="st18"/>
			<text x="8" y="640.24" class="st14">Yes</text>		</g>
		<g id="shape1297-127" transform="translate(591.537,-475.764)">
			<title>Rectangle.264</title>
			<desc>Patient shown a list of CP&#39;s in their area to choose from</desc>
			<path d="M7.84 595.28 L70.53 595.28 A7.83637 7.83637 -180 0 0 78.37 587.44 L78.37 564.02 A7.83637 7.83637 -180 0 0 70.53
						 556.19 L7.84 556.19 A7.83637 7.83637 -180 0 0 -0 564.02 L0 587.44 A7.83637 7.83637 -180 0 0 7.84 595.28
						 Z" class="st20"/>
			<text x="7.41" y="568.53" class="st14">Patient shown a list <tspan x="7.61" dy="1.2em" class="st15">of CP&#39;s in their area </tspan><tspan
						x="14.44" dy="1.2em" class="st15">to choose from</tspan></text>		</g>
		<g id="shape824-132" transform="translate(669.903,-486.309)">
			<title>Sequence Flow.824</title>
			<path d="M0 586.28 L13.5 586.28 a0.000595276 0.000595276 -180 0 0 0.000595276 -0.000595276 L13.5 586.27 L25.95 586.27"
					class="st16"/>
		</g>
		<g id="shape1292-137" transform="translate(700.891,-479.232)">
			<title>Rounded Rectangle.1292</title>
			<desc>Patient selects preferred CP and submits</desc>
			<path d="M7.79 595.28 L70.1 595.28 A7.78886 7.78886 -180 0 0 77.89 587.49 L77.89 570.91 A7.78886 7.78886 -180 0 0 70.1
						 563.12 L7.79 563.12 A7.78886 7.78886 -180 0 0 -0 570.91 L0 587.49 A7.78886 7.78886 -180 0 0 7.79 595.28
						 Z" class="st20"/>
			<text x="15.31" y="572" class="st14">Patient selects <tspan x="11.24" dy="1.2em" class="st15">preferred CP</tspan> and <tspan
						x="26.16" dy="1.2em" class="st15">submits</tspan></text>		</g>
		<g id="shape1017-142" transform="translate(482.317,-467.088)">
			<title>Diamond.1017</title>
			<desc>Patient provides   consent for Direct Care Y/N</desc>
			<path d="M39.45 595.28 L78.89 566.1 L39.45 536.93 L0 566.1 L39.45 595.28 Z" class="st9"/>
			<text x="27.77" y="554.1" class="st14">Patient <tspan x="24.55" dy="1.2em" class="st15">provides</tspan> <tspan
						x="9.31" dy="1.2em" class="st15"> </tspan>consent for Direct <tspan x="25.03" dy="1.2em" class="st15">Care Y/N</tspan></text>		</g>
		<g id="shape829-148" transform="translate(455.199,-487.262)">
			<title>Sequence Flow.829</title>
			<path d="M0 586.28 L22.08 586.28" class="st16"/>
		</g>
		<g id="shape1324-153" transform="translate(272.077,-354.367)">
			<title>Diamond.1324</title>
			<desc>OC system matches Patient Y/N </desc>
			<path d="M38.94 595.28 L77.88 573.15 L38.94 551.03 L0 573.15 L38.94 595.28 Z" class="st9"/>
			<text x="21.79" y="565.95" class="st14">OC system <tspan x="25.14" dy="1.2em" class="st15">matches </tspan><tspan
						x="19.38" dy="1.2em" class="st15">Patient Y/N</tspan></text>		</g>
		<g id="shape831-158" transform="translate(320.02,-476.275)">
			<title>Sequence Flow.831</title>
			<path d="M-8.99 595.28 L-8.99 608.77 a0.0054 0.0054 0 0 1 -0.0054 0.0054 L-9 608.78 a0.0054 0.0054 -180 0 0 -0.0054 0.0054
						 L-9.01 667.9" class="st16"/>
		</g>
		<g id="group1003-163" transform="translate(225,-128.25)">
			<title>End Event.804</title>
			<desc>End</desc>
			<g id="shape1004-164">
				<title>Sheet.1004</title>
				<ellipse cx="11.25" cy="584.026" rx="11.25" ry="11.25" class="st21"/>
			</g>
			<g id="shape1005-166">
				<title>Sheet.1005</title>
				<ellipse cx="11.25" cy="584.026" rx="9" ry="9" class="st10"/>
			</g>
			<g id="shape1006-168" transform="translate(4.77,-4.77)">
				<title>Sheet.1006</title>
				<ellipse cx="6.48" cy="588.796" rx="6.48" ry="6.48" class="st11"/>
			</g>
			<g id="shape1007-170" transform="translate(2.25,-2.25)">
				<title>Sheet.1007</title>
				<ellipse cx="9" cy="586.276" rx="9" ry="9" class="st9"/>
			</g>
			<g id="shape1008-172" transform="translate(5.0625,-6.75)">
				<title>Sheet.1008</title>
			</g>
			<g id="shape1009-174" transform="translate(18.3707,-6.78919) scale(-1,1)">
				<title>Sheet.1009</title>
			</g>
			<g id="shape1010-176" transform="translate(5.14219,-5.14219)">
				<title>Sheet.1010</title>
			</g>
			<g id="shape1011-178" transform="translate(4.77,-7.72558)">
				<title>Sheet.1011</title>
			</g>
			<g id="shape1012-180" transform="translate(4.77,-5.6694)">
				<title>Sheet.1012</title>
			</g>
			<g id="shape1013-182" transform="translate(5.0625,-6.75)">
				<title>Sheet.1013</title>
			</g>
			<g id="shape1014-184" transform="translate(6.16741,-5.34375)">
				<title>Sheet.1014</title>
			</g>
			<g id="shape1015-186" transform="translate(4.5,-4.5)">
				<title>Sheet.1015</title>
			</g>
			<g id="shape1003-188">
				<text x="5.14" y="604.48" class="st13">End</text>			</g>
		</g>
		<g id="shape1295-191" transform="translate(483,-231.108)">
			<title>Rounded Rectangle.1295</title>
			<desc>GP Payload created (including consent) and sent to GP practice</desc>
			<path d="M7.79 595.28 L70.09 595.28 A7.78742 7.78742 -180 0 0 77.88 587.49 L77.88 551.29 A7.78742 7.78742 -180 0 0 70.09
						 543.5 L7.79 543.5 A7.78742 7.78742 -180 0 0 -0 551.29 L0 587.49 A7.78742 7.78742 -180 0 0 7.79 595.28 Z"
					class="st19"/>
			<text x="7.28" y="557.39" class="st14">GP Payload created <tspan x="7.98" dy="1.2em" class="st15">(including consent) </tspan><tspan
						x="15.07" dy="1.2em" class="st15">and sent to GP </tspan><tspan x="25.9" dy="1.2em" class="st15">practice</tspan></text>		</g>
		<g id="shape1019-197" transform="translate(512.85,-467.088)">
			<title>Sequence Flow.1019</title>
			<desc>No</desc>
			<path d="M8.91 595.28 L8.91 608.69 a0.0876567 0.0876567 -180 0 0 0.0876567 0.0876567 L9 608.78 a0.0876567 0.0876567 0
						 0 1 0.0876567 0.0876567 L9.09 774.44" class="st16"/>
			<rect x="4.39628" y="682.542" width="9.38287" height="9.59985" class="st18"/>
			<text x="4.4" y="689.74" class="st14">No</text>		</g>
		<g id="shape1301-204" transform="translate(386.125,-127.843)">
			<title>Rounded Rectangle.1301</title>
			<desc>OC received by GP Practice</desc>
			<path d="M7.02 595.28 L63.15 595.28 A7.01631 7.01631 -180 0 0 70.16 588.26 L70.16 578.98 A7.01631 7.01631 -180 0 0 63.15
						 571.96 L7.02 571.96 A7.01631 7.01631 -180 0 0 0 578.98 L0 588.26 A7.01631 7.01631 -180 0 0 7.02 595.28 Z"
					class="st19"/>
			<text x="5.2" y="581.22" class="st14">OC received by GP <tspan x="22.07" dy="1.2em" class="st15">Practice</tspan></text>		</g>
		<g id="shape1021-208" transform="translate(483,-256.996)">
			<title>Sequence Flow.1021</title>
			<path d="M-1.53 595.28 L-1.89 595.28 L-57.29 595.28 A4.5 4.5 -180 0 0 -61.79 599.78 L-61.79 696.07" class="st22"/>
		</g>
		<g id="shape1022-217" transform="translate(287.744,-130.496)">
			<title>Sequence Flow.1022</title>
			<path d="M0 586.28 L-13.5 586.28 a0.0036 0.0036 0 0 1 -0.0036 -0.0036 L-13.5 586.28 a0.0036 0.0036 -180 0 0 -0.0036 -0.0036
						 L-35.2 586.27" class="st16"/>
		</g>
		<g id="shape1151-222" transform="translate(441,-211.218)">
			<title>Sheet.1151</title>
			<desc>​GP CONNECT PAYLOAD</desc>
			<rect x="0" y="572.776" width="96.1776" height="22.5" class="st23"/>
			<text x="1.186em" y="586.43" class="st24">​GP CONNECT PAYLOAD</text>		</g>
		<g id="shape1323-225" transform="translate(739.41,-319.651)">
			<title>Sequence Flow.1323</title>
			<desc>GP</desc>
			<path d="M0 595.28 L0 653.43 A4.5 4.5 0 0 1 -4.5 657.93 L-173.49 657.93" class="st16"/>
			<rect x="-5.99975" y="622.127" width="9.17963" height="9.59985" class="st18"/>
			<text x="-6" y="629.33" class="st14">GP</text>		</g>
		<g id="group1326-232" transform="translate(299.79,-307.2)">
			<title>End Event.1326</title>
			<desc>X</desc>
			<g id="shape1327-233">
				<title>Sheet.1327</title>
				<ellipse cx="11.25" cy="584.026" rx="11.25" ry="11.25" class="st21"/>
			</g>
			<g id="shape1328-235">
				<title>Sheet.1328</title>
				<ellipse cx="11.25" cy="584.026" rx="9" ry="9" class="st10"/>
			</g>
			<g id="shape1329-237" transform="translate(4.77,-4.77)">
				<title>Sheet.1329</title>
				<ellipse cx="6.48" cy="588.796" rx="6.48" ry="6.48" class="st11"/>
			</g>
			<g id="shape1330-239" transform="translate(2.25,-2.25)">
				<title>Sheet.1330</title>
				<ellipse cx="9" cy="586.276" rx="9" ry="9" class="st9"/>
			</g>
			<g id="shape1331-241" transform="translate(5.0625,-6.75)">
				<title>Sheet.1331</title>
			</g>
			<g id="shape1332-243" transform="translate(18.3707,-6.78919) scale(-1,1)">
				<title>Sheet.1332</title>
			</g>
			<g id="shape1333-245" transform="translate(5.14219,-5.14219)">
				<title>Sheet.1333</title>
			</g>
			<g id="shape1334-247" transform="translate(4.77,-7.72558)">
				<title>Sheet.1334</title>
			</g>
			<g id="shape1335-249" transform="translate(4.77,-5.6694)">
				<title>Sheet.1335</title>
			</g>
			<g id="shape1336-251" transform="translate(5.0625,-6.75)">
				<title>Sheet.1336</title>
			</g>
			<g id="shape1337-253" transform="translate(6.16741,-5.34375)">
				<title>Sheet.1337</title>
			</g>
			<g id="shape1338-255" transform="translate(4.5,-4.5)">
				<title>Sheet.1338</title>
			</g>
			<g id="shape1326-257">
				<text x="7.58" y="607.18" class="st25">X</text>			</g>
		</g>
		<g id="shape1339-260" transform="translate(302.027,-354.367)">
			<title>Sequence Flow.1339</title>
			<desc>No</desc>
			<path d="M8.99 595.28 L8.99 608.76 a0.0126 0.0126 -180 0 0 0.0126 0.0126 L9 608.78 a0.0126 0.0126 0 0 1 0.0126 0.0126
						 L9.01 614.9" class="st16"/>
			<rect x="4.29602" y="602.815" width="9.38287" height="9.59985" class="st18"/>
			<text x="4.3" y="610.01" class="st14">No</text>		</g>
		<g id="shape1341-267" transform="translate(591.771,-398.62)">
			<title>Rounded Rectangle.1341</title>
			<desc>OC system searches for CP&#39;s local to the patient</desc>
			<path d="M7.79 595.28 L70.11 595.28 A7.78958 7.78958 -180 0 0 77.9 587.49 L77.9 570.91 A7.78958 7.78958 -180 0 0 70.11
						 563.12 L7.79 563.12 A7.78958 7.78958 -180 0 0 0 570.91 L0 587.49 A7.78958 7.78958 -180 0 0 7.79 595.28 Z"
					class="st9"/>
			<text x="6.68" y="572" class="st14">OC system searches <tspan x="7.53" dy="1.2em" class="st15">for CP&#39;s local to the </tspan><tspan
						x="27.24" dy="1.2em" class="st15">patient</tspan></text>		</g>
		<g id="shape1343-272" transform="translate(621.72,-430.775)">
			<title>Sequence Flow.1343</title>
			<path d="M9 595.28 L9 555.33" class="st16"/>
		</g>
		<g id="shape1344-277" transform="translate(287.744,-130.241)">
			<title>Rounded Rectangle.1344</title>
			<desc>Actioned</desc>
			<path d="M5.51 595.28 L49.57 595.28 A5.50721 5.50721 -180 0 0 55.07 589.77 L55.07 582.28 A5.50721 5.50721 -180 0 0 49.57
						 576.77 L5.51 576.77 A5.50721 5.50721 -180 0 0 0 582.28 L0 589.77 A5.50721 5.50721 -180 0 0 5.51 595.28 Z"
					class="st19"/>
			<text x="12.97" y="588.42" class="st14">Actioned</text>		</g>
		<g id="shape1347-280" transform="translate(386.125,-148.496)">
			<title>Sequence Flow.1347</title>
			<path d="M0 604.27 L-13.5 604.27 a0.0036 0.0036 -180 0 0 -0.0036 0.0036 L-13.5 604.28 a0.0036 0.0036 0 0 1 -0.0036 0.0036
						 L-38.27 604.28" class="st16"/>
		</g>
		<g id="shape1356-285" transform="translate(804.6,-549)">
			<title>Rounded Rectangle</title>
			<desc>GP Connect deliverable</desc>
			<path d="M8.64 595.28 L77.76 595.28 A8.63986 8.63986 -180 0 0 86.4 586.64 L86.4 568.82 A8.63986 8.63986 -180 0 0 77.76
						 560.18 L8.64 560.18 A8.63986 8.63986 -180 0 0 0 568.82 L0 586.64 A8.63986 8.63986 -180 0 0 8.64 595.28 Z"
					class="st26"/>
			<text x="5.29" y="580.13" class="st14">GP Connect deliverable</text>		</g>
	</g>
</svg>
